#tb 0: 1/25
0,          0,          0,        1,   196608, 0xb6d22af1
0,          1,          1,        1,   196608, 0xd7c6f971
0,          2,          2,        1,   196608, 0xfe729faa
